# xmcd
#
# Track frame offsets: 
#        150
#        26086
#        58036
#        98306
#        147758
#
# Disc length: 2684 seconds
#
# Revision: 2
# Processed by: cddbd v1.5.2PL0 Copyright (c) Steve Scherf et al.
# Submitted via: ExactAudioCopy v0.99pb4
#
DISCID=370a7a05
DTITLE=Riverside - Anno Domini High Definition
DYEAR=2009
DGENRE=Progressive Rock
TTITLE0=Hyperactive
TTITLE1=Driven To Destruction
TTITLE2=Egoist Hedonist
TTITLE3=Left Out
TTITLE4=Hybrid Times
EXTD=
EXTT0=
EXTT1=
EXTT2=
EXTT3=
EXTT4=
PLAYORDER=
